<svg xmlns:dc="http://purl.org/dc/elements/1.1/" xmlns:cc="http://creativecommons.org/ns#" xmlns:rdf="http://www.w3.org/1999/02/22-rdf-syntax-ns#" xmlns:svg="http://www.w3.org/2000/svg" xmlns="http://www.w3.org/2000/svg" xmlns:sodipodi="http://sodipodi.sourceforge.net/DTD/sodipodi-0.dtd" xmlns:inkscape="http://www.inkscape.org/namespaces/inkscape" version="1.1" x="0px" y="0px" viewBox="0 0 100 125"><g transform="translate(0,-952.36218)"><path d="m 50,968.36217 c -18.75399,0 -34,15.24599 -34,34.00003 0,18.754 15.24601,34 34,34 18.75399,0 34,-15.246 34,-34 0,-18.75404 -15.24601,-34.00003 -34,-34.00003 z m 0,4 c 16.59223,0 30,13.40772 30,30.00003 0,7.3469 -2.62993,14.0706 -7,19.2812 l 0,-5.2812 c 0,-4.3528 -2.96997,-7.9855 -7.15625,-10.3438 -4.18628,-2.3582 -9.73417,-3.6562 -15.84375,-3.6562 -6.10959,0 -11.65747,1.298 -15.84375,3.6562 C 29.96996,1008.3767 27,1012.0094 27,1016.3622 l 0,5.2812 c -4.37008,-5.2106 -7,-11.9343 -7,-19.2812 0,-16.59231 13.40777,-30.00003 30,-30.00003 z m 0,4 c -6.60374,0 -12,5.39627 -12,12 0,6.60372 5.39626,12.00003 12,12.00003 6.60373,0 12,-5.39631 12,-12.00003 0,-6.60373 -5.39627,-12 -12,-12 z m 0,4 c 4.442,0 8,3.55803 8,8 0,4.44196 -3.558,8 -8,8 -4.442,0 -8,-3.55804 -8,-8 0,-4.44197 3.558,-8 8,-8 z m 0,26.00003 c 5.52441,0 10.46978,1.238 13.875,3.1562 3.40521,1.9183 5.125,4.3024 5.125,6.8438 l 0,9.2187 c -5.17133,4.234 -11.78118,6.7813 -19,6.7813 -7.21882,0 -13.82867,-2.5473 -19,-6.7813 l 0,-9.2187 c 0,-2.5414 1.71978,-4.9255 5.125,-6.8438 3.40521,-1.9182 8.35058,-3.1562 13.875,-3.1562 z" style="text-indent:0;text-transform:none;direction:ltr;block-progression:tb;baseline-shift:baseline;color:#000000;enable-background:accumulate;" fill="#000000" fill-opacity="1" stroke="none" marker="none" visibility="visible" display="inline" overflow="visible"/></g><text x="0" y="115" fill="#000000" font-size="5px" font-weight="bold" font-family="'Helvetica Neue', Helvetica, Arial-Unicode, Arial, Sans-serif">Created by iconsphere</text><text x="0" y="120" fill="#000000" font-size="5px" font-weight="bold" font-family="'Helvetica Neue', Helvetica, Arial-Unicode, Arial, Sans-serif">from the Noun Project</text></svg> 